<?xml version="1.0" standalone="no"?>
<!DOCTYPE svg PUBLIC "-//W3C//DTD SVG 20010904//EN"
 "http://www.w3.org/TR/2001/REC-SVG-20010904/DTD/svg10.dtd">
<svg version="1.0" xmlns="http://www.w3.org/2000/svg"
 width="24.000000pt" height="24.000000pt" viewBox="0 0 24.000000 24.000000"
 preserveAspectRatio="xMidYMid meet" style="background-color:#ffffff">
 <style type="text/css">
	.st0{fill:#0078C1;}
	.st1{fill:#0078C1;}
	.st2{fill:#0078C1;}
	.st3{fill:#0078C1;}
	.st4{fill:#00ADEE;}
	.st5{fill:#0078C1;}
	.st6{fill:#0078C1;}
	.st7{fill:#0078C1;}
</style>
<rect width="24" height="24" style="fill:rgb(255,255,255)" />
<g transform="translate(4.000000,20.000000) scale(0.003990,-0.003990)"
fill="#000000" stroke="none">
<path class="st0" d="M2610 3150 l0 -220 585 0 c322 0 585 4 585 8 0 16 -128 140 -192 185
-132 94 -309 167 -503 206 -97 20 -316 41 -422 41 l-53 0 0 -220z"/>
<path class="st1" d="M2265 3329 c-308 -54 -579 -142 -867 -281 -128 -62 -148 -75 -148
-95 l0 -23 600 0 600 0 0 210 0 210 -37 -1 c-21 0 -87 -9 -148 -20z"/>
<path class="st2" d="M980 2809 c-448 -303 -772 -701 -878 -1078 l-20 -71 504 0 504 0 0
610 c0 336 -1 610 -3 610 -2 0 -50 -32 -107 -71z"/>
<path class="st3" d="M1250 2210 l0 -560 600 0 600 0 0 560 0 560 -600 0 -600 0 0 -560z"/>
<path class="st4" d="M2610 2210 l0 -550 503 0 503 0 71 108 c226 339 296 662 206 945
l-15 47 -634 0 -634 0 0 -550z"/>
<path class="st5" d="M63 1402 c18 -294 186 -537 475 -685 138 -71 337 -130 510 -150 l42
-5 0 469 0 469 -517 0 -516 0 6 -98z"/>
<path class="st6" d="M1252 1028 l3 -473 115 2 c300 5 650 79 973 203 l107 41 0 350 0 349
-600 0 -600 0 2 -472z"/>
<path class="st7" d="M2610 1190 c0 -171 2 -310 5 -310 9 0 104 49 190 98 210 120 457 306
600 451 l69 71 -432 0 -432 0 0 -310z"/>
</g>
</svg>
